
		<svg xmlns="http://www.w3.org/2000/svg" xmlns:xlink="http://www.w3.org/1999/xlink" version="1.1" width="512" height="512" viewBox="0 0 3187.5 832.3438920472798">
			<g transform="scale(10) translate(0,-115)">
				<defs id="SvgjsDefs6203"></defs>
				<g id="SvgjsG6204" featureKey="symbolFeature-0" fill="#303F9F">
					<defs xmlns="http://www.w3.org/2000/svg"></defs>
				
					<g xmlns="http://www.w3.org/2000/svg">
						<path class="fil0" 
							d="M2 119l52 -69 11 12 41 -62 26 46 12 -18 38 65 8 -12 39 54 8 -15 67 32 -18 4 -45 -18 -9 16 -41 -50 -13 17 -33 -69c0,0 -12,33 -13,31 -1,-2 -27,-59 -27,-59l-42 66 -9 -24 -28 49 -24 4z" 
							style="fill: #303F9F;">
						</path>
						<path class="fil0" 
							d="M0 132c21,-3 170,-7 173,14 5,28 -81,31 -82,38 -2,15 148,-1 164,-8l34 12c-22,8 -257,47 -233,-7 15,-17 89,-15 92,-33 1,-16 -115,-10 -148,-16l0 0z" 
							style="fill: #303F9F;">
						</path>
					</g>
				</g>

			</g>
		</svg>
	